<svg width="290" height="48" viewBox="0 0 290 48" fill="none" xmlns="http://www.w3.org/2000/svg">
<path d="M19.02 46V11.64H29.5L32.38 32.6L35.26 11.64H45.82V46H39.54V21.24L35.58 46H29.42L25.22 21.24V46H19.02ZM48.8638 11.64H58.3438C60.7971 11.64 62.6371 12.32 63.8638 13.68C65.0904 15.04 65.7171 17.0533 65.7438 19.72L65.8238 35.8C65.8504 39.1867 65.2638 41.7333 64.0638 43.44C62.8638 45.1467 60.8771 46 58.1038 46H48.8638V11.64ZM56.9838 39.92C58.2371 39.92 58.8638 39.3067 58.8638 38.08V20.36C58.8638 19.5867 58.7971 19.0133 58.6638 18.64C58.5571 18.24 58.3438 17.9733 58.0238 17.84C57.7038 17.7067 57.2104 17.64 56.5438 17.64H55.7838V39.92H56.9838ZM77.0453 46L80.3653 11.64H92.0053L95.2853 46H88.7653L88.2853 40.44H84.1253L83.7253 46H77.0453ZM84.6453 34.96H87.7653L86.2453 17.48H85.9253L84.6453 34.96ZM97.3794 11.64H106.699C109.206 11.64 111.019 12.2533 112.139 13.48C113.286 14.7067 113.859 16.7067 113.859 19.48V21C113.859 24.28 112.686 26.24 110.339 26.88C111.779 27.2533 112.793 28.12 113.379 29.48C113.966 30.84 114.259 32.64 114.259 34.88C114.259 38.5333 113.713 41.3067 112.619 43.2C111.526 45.0667 109.553 46 106.699 46H97.3794V11.64ZM105.499 24.56C106.086 24.56 106.486 24.3467 106.699 23.92C106.913 23.4667 107.019 22.84 107.019 22.04V18.6C107.019 17.48 106.526 16.92 105.539 16.92H104.099V24.56H105.499ZM104.779 39.96C106.566 39.96 107.459 39.1067 107.459 37.4V33.12C107.459 32.08 107.299 31.2933 106.979 30.76C106.686 30.2267 106.153 29.96 105.379 29.96H104.099V39.92L104.779 39.96ZM116.52 11.64H126C128.453 11.64 130.293 12.32 131.52 13.68C132.747 15.04 133.373 17.0533 133.4 19.72L133.48 35.8C133.507 39.1867 132.92 41.7333 131.72 43.44C130.52 45.1467 128.533 46 125.76 46H116.52V11.64ZM124.64 39.92C125.893 39.92 126.52 39.3067 126.52 38.08V20.36C126.52 19.5867 126.453 19.0133 126.32 18.64C126.213 18.24 126 17.9733 125.68 17.84C125.36 17.7067 124.867 17.64 124.2 17.64H123.44V39.92H124.64ZM144.207 46.32C141.38 46.32 139.273 45.52 137.887 43.92C136.527 42.32 135.847 39.9467 135.847 36.8V11.64H142.527V36.52C142.527 37.6133 142.633 38.4667 142.847 39.08C143.06 39.6933 143.513 40 144.207 40C144.9 40 145.353 39.7067 145.567 39.12C145.78 38.5067 145.887 37.64 145.887 36.52V11.64H152.567V36.8C152.567 39.9467 151.873 42.32 150.487 43.92C149.127 45.52 147.033 46.32 144.207 46.32ZM155.192 46V11.64H162.072V40.16H169.152V46H155.192ZM180.465 46V11.64H187.265V25.4L190.465 11.64H197.385L193.545 27.36L198.185 46H191.065L187.305 29.36V46H180.465ZM198.413 46L201.733 11.64H213.373L216.653 46H210.133L209.653 40.44H205.493L205.093 46H198.413ZM206.013 34.96H209.133L207.613 17.48H207.293L206.013 34.96ZM218.747 11.64H228.227C230.68 11.64 232.52 12.32 233.747 13.68C234.973 15.04 235.6 17.0533 235.627 19.72L235.707 35.8C235.733 39.1867 235.147 41.7333 233.947 43.44C232.747 45.1467 230.76 46 227.987 46H218.747V11.64ZM226.867 39.92C228.12 39.92 228.747 39.3067 228.747 38.08V20.36C228.747 19.5867 228.68 19.0133 228.547 18.64C228.44 18.24 228.227 17.9733 227.907 17.84C227.587 17.7067 227.093 17.64 226.427 17.64H225.667V39.92H226.867ZM238.473 46V11.64H252.233V18.28H245.473V24.96H251.953V31.44H245.473V39.32H252.673V46H238.473ZM254.958 11.64H265.518C267.198 11.64 268.491 12.0267 269.398 12.8C270.331 13.5467 270.958 14.6133 271.278 16C271.598 17.36 271.758 19.1067 271.758 21.24C271.758 23.1867 271.504 24.7067 270.998 25.8C270.491 26.8933 269.611 27.6533 268.358 28.08C269.398 28.2933 270.144 28.8133 270.598 29.64C271.078 30.4667 271.318 31.5867 271.318 33L271.238 46H264.518V32.56C264.518 31.6 264.331 30.9867 263.958 30.72C263.584 30.4533 262.904 30.32 261.918 30.32V46H254.958V11.64ZM263.598 24.36C264.558 24.36 265.038 23.32 265.038 21.24C265.038 20.3333 264.998 19.6533 264.918 19.2C264.838 18.7467 264.691 18.44 264.478 18.28C264.264 18.0933 263.958 18 263.558 18H261.958V24.36H263.598Z" fill="#BF3636"/>
</svg>
